<svg width="170" height="61" viewBox="0 0 170 61" fill="none" xmlns="http://www.w3.org/2000/svg">
<path d="M12.955 47.852H11.791V34.352C11.791 25.044 16.92 19.917 26.234 19.917H39.982V30.517C39.982 40.564 32.682 47.856 22.631 47.856L12.955 47.852ZM22.048 43.794C23.8719 43.8046 25.6799 43.4533 27.3672 42.7605C29.0545 42.0677 30.5876 41.0472 31.8778 39.7579C33.168 38.4686 34.1897 36.9362 34.8837 35.2494C35.5777 33.5626 35.9303 31.755 35.921 29.931V24.631H26.821C20.221 24.631 16.853 27.674 16.538 33.931C18.861 31.886 22.038 30.851 26.019 30.851H31.032C31.1084 31.2977 31.1355 31.7514 31.113 32.204C31.1892 33.3878 30.8869 34.5652 30.25 35.566H26.6C20.8 35.566 17.682 38.26 17.092 43.796L22.048 43.794ZM6.9 47.843H4V29.921C4 29.881 4 29.84 4 29.8V29.339C4.00688 24.7404 5.83752 20.3324 9.09032 17.0818C12.3431 13.8313 16.7524 12.0037 21.351 12L39.867 12V16.059H21.934C18.2574 16.0616 14.7319 17.5226 12.1311 20.1213C9.53031 22.7201 8.06656 26.2444 8.061 29.921V47.843H6.9Z" fill="#B9B9B9"/>
<path d="M60.5225 22.3821H52.2225L52.4905 22.6381V25.4381L52.2225 25.7111L59.7055 25.7281V28.3071H52.2225L52.4905 28.5801V33.6181H49.6445V19.7861H60.5225V22.3821Z" fill="#B9B9B9"/>
<path d="M67.3085 33.7901C63.5585 33.7901 61.7005 31.3651 61.7005 28.2391C61.7005 25.1131 63.5585 22.6891 67.2915 22.6891C71.0585 22.6891 72.9165 25.0971 72.9165 28.2391C72.9696 28.9866 72.8604 29.7368 72.5966 30.4382C72.3327 31.1396 71.9203 31.7757 71.3877 32.3029C70.8551 32.8301 70.2148 33.2359 69.5108 33.4926C68.8067 33.7493 68.0555 33.8508 67.3085 33.7901ZM67.3085 25.1481C65.3335 25.1481 64.4965 26.3771 64.4965 28.2391C64.4965 30.0841 65.3665 31.3471 67.3085 31.3471C69.2675 31.3471 70.1205 30.0831 70.1205 28.2391C70.1205 26.3951 69.2635 25.1481 67.3085 25.1481Z" fill="#B9B9B9"/>
<path d="M79.6485 33.8061C77.7141 33.8089 75.8495 33.0835 74.4255 31.7741L76.2165 29.9291C76.6507 30.3932 77.1737 30.7651 77.7546 31.0228C78.3354 31.2805 78.9622 31.4187 79.5975 31.4291C81.2045 31.4291 81.6735 30.9161 81.6735 30.5241C81.6735 30.1831 81.5225 29.9091 80.3005 29.6021C80.0665 29.5511 78.6435 29.1581 78.4095 29.1071C76.6015 28.6451 74.7435 27.8941 74.7435 25.9301C74.7435 24.0681 76.4845 22.7021 79.4805 22.7021C80.3506 22.663 81.2194 22.8018 82.0339 23.1101C82.8485 23.4184 83.5915 23.8897 84.2175 24.4951L82.4765 26.2541C81.6799 25.476 80.6101 25.0409 79.4965 25.0421C77.9225 25.0421 77.5545 25.5881 77.5545 25.8951C77.5545 26.3391 78.1235 26.5101 79.4125 26.8341C79.6305 26.8861 80.8685 27.2271 81.1035 27.2951C83.3295 27.8581 84.4845 28.7811 84.4845 30.4031C84.4855 32.2351 82.9125 33.8061 79.6485 33.8061Z" fill="#B9B9B9"/>
<path d="M91.2175 33.8061C89.2831 33.8089 87.4185 33.0835 85.9945 31.7741L87.7855 29.9291C88.2197 30.3932 88.7427 30.7651 89.3236 31.0228C89.9044 31.2805 90.5312 31.4187 91.1665 31.4291C92.7735 31.4291 93.2425 30.9161 93.2425 30.5241C93.2425 30.1831 93.0915 29.9091 91.8695 29.6021C91.6355 29.5511 90.2125 29.1581 89.9775 29.1071C88.1695 28.6451 86.3115 27.8941 86.3115 25.9301C86.3115 24.0681 88.0525 22.7021 91.0485 22.7021C91.9185 22.663 92.7874 22.8018 93.602 23.1101C94.4165 23.4184 95.1595 23.8897 95.7855 24.4951L94.0445 26.2541C93.2482 25.4761 92.1788 25.041 91.0655 25.0421C89.4915 25.0421 89.1235 25.5881 89.1235 25.8951C89.1235 26.3391 89.6925 26.5101 90.9815 26.8341C91.1985 26.8861 92.4375 27.2271 92.6725 27.2951C94.8985 27.8581 96.0535 28.7811 96.0535 30.4031C96.0555 32.2351 94.4815 33.8061 91.2175 33.8061Z" fill="#B9B9B9"/>
<path d="M99.5215 22.1421C99.2078 22.1555 98.8973 22.0747 98.6299 21.9101C98.3625 21.7455 98.1505 21.5046 98.0212 21.2185C97.8918 20.9324 97.8511 20.6141 97.9041 20.3047C97.9572 19.9952 98.1017 19.7087 98.319 19.482C98.5363 19.2553 98.8164 19.0989 99.1234 19.0328C99.4303 18.9667 99.75 18.994 100.041 19.1111C100.333 19.2283 100.582 19.4299 100.758 19.6901C100.934 19.9503 101.028 20.2571 101.028 20.5711C101.04 20.7751 101.009 20.9793 100.939 21.171C100.868 21.3627 100.759 21.5378 100.617 21.6853C100.476 21.8328 100.306 21.9494 100.117 22.0281C99.9285 22.1067 99.7258 22.1455 99.5215 22.1421ZM100.912 33.6191H98.1115V22.8601H100.912V33.6191Z" fill="#B9B9B9"/>
<path d="M106.302 33.6201H103.502V19.2741H106.302V33.6201Z" fill="#B9B9B9"/>
<path d="M121.234 33.6191H119.509V31.8431H119.475C118.966 32.4712 118.319 32.9737 117.584 33.3113C116.85 33.649 116.048 33.8128 115.24 33.7901C110.888 33.7901 108.427 31.0901 108.427 26.8391C108.427 22.4671 110.971 19.6151 115.341 19.6151C116.336 19.5676 117.33 19.73 118.259 20.0918C119.187 20.4536 120.03 21.0067 120.731 21.7151L119.258 23.1841C118.782 22.6173 118.179 22.1705 117.499 21.8797C116.818 21.5888 116.079 21.4623 115.341 21.5101C112.041 21.5101 110.487 23.5261 110.487 26.8381C110.487 29.9981 111.993 31.8931 115.241 31.8931C115.784 31.9126 116.325 31.8214 116.832 31.6251C117.339 31.4288 117.8 31.1315 118.189 30.7513C118.577 30.3711 118.884 29.9159 119.091 29.4134C119.298 28.9109 119.4 28.3715 119.393 27.8281L119.593 27.6401H114.973V25.7401H121.234V33.6191Z" fill="#B9B9B9"/>
<path d="M129.769 24.7731H129.15C127.392 24.7561 126.036 25.7461 126.036 28.3091V33.6151H124.078V22.8611H126.036V24.5861H126.07C126.386 24.0076 126.858 23.5287 127.432 23.2031C128.005 22.8774 128.658 22.7178 129.318 22.7421H129.77L129.769 24.7731Z" fill="#B9B9B9"/>
<path d="M136.052 33.7901C132.57 33.7901 130.863 31.4161 130.863 28.2391C130.863 25.0621 132.588 22.6891 136.036 22.6891C139.518 22.6891 141.242 25.0291 141.242 28.2391C141.242 31.3991 139.484 33.7901 136.052 33.7901ZM136.052 24.4821C133.775 24.4821 132.821 26.0881 132.821 28.2391C132.821 30.3571 133.792 31.9961 136.052 31.9961C138.329 31.9961 139.283 30.3741 139.283 28.2391C139.283 26.1041 138.312 24.4821 136.052 24.4821Z" fill="#B9B9B9"/>
<path d="M152.961 33.6191H151.003V32.4581H150.969C150.564 32.8902 150.074 33.2321 149.529 33.4616C148.983 33.6911 148.396 33.8031 147.805 33.7901C144.725 33.7901 143.419 32.1331 143.419 29.5031V22.8601H145.378V29.4351C145.378 30.8861 145.796 31.9961 148.039 31.9961C148.423 32.0387 148.812 31.9973 149.178 31.875C149.545 31.7527 149.881 31.5523 150.162 31.2877C150.444 31.023 150.665 30.7003 150.81 30.342C150.955 29.9837 151.02 29.5982 151.002 29.2121V22.8591H152.96L152.961 33.6191Z" fill="#B9B9B9"/>
<path d="M160.981 33.7901C160.39 33.8201 159.799 33.7211 159.25 33.4999C158.701 33.2787 158.206 32.9406 157.801 32.5091H157.768V37.2091H155.809V22.8601H157.768V23.9701H157.801C158.208 23.5415 158.703 23.2053 159.252 22.9843C159.801 22.7633 160.391 22.6626 160.981 22.6891C164.329 22.6891 165.987 25.0461 165.987 28.2391C165.987 31.4501 164.363 33.7901 160.981 33.7901ZM160.832 24.4821C158.539 24.4821 157.632 26.1221 157.632 28.2731C157.632 30.4421 158.502 31.9961 160.832 31.9961C163.142 31.9961 164.032 30.4251 164.032 28.2731C164.032 26.1211 163.158 24.4821 160.83 24.4821H160.832Z" fill="#B9B9B9"/>
<path d="M53.1595 37.0772L51.7205 39.0902V40.5322H51.2145V39.0902L49.7715 37.0772H50.4035L51.2445 38.2882L51.4625 38.6592H51.4705L51.6845 38.2842L52.5335 37.0762L53.1595 37.0772Z" fill="#B9B9B9"/>
<path d="M55.3035 40.5752C55.0751 40.5885 54.8467 40.5514 54.6342 40.4666C54.4218 40.3818 54.2306 40.2514 54.0741 40.0845C53.9176 39.9177 53.7998 39.7185 53.7288 39.501C53.6579 39.2836 53.6355 39.0532 53.6635 38.8262C53.644 38.599 53.672 38.3703 53.7456 38.1545C53.8192 37.9387 53.9368 37.7406 54.091 37.5726C54.2451 37.4047 54.4325 37.2706 54.6413 37.1788C54.85 37.0871 55.0755 37.0398 55.3035 37.0398C55.5315 37.0398 55.757 37.0871 55.9657 37.1788C56.1744 37.2706 56.3618 37.4047 56.516 37.5726C56.6702 37.7406 56.7878 37.9387 56.8614 38.1545C56.935 38.3703 56.9629 38.599 56.9435 38.8262C56.97 39.0529 56.9467 39.2827 56.8752 39.4995C56.8037 39.7164 56.6858 39.915 56.5296 40.0815C56.3735 40.248 56.1829 40.3785 55.9711 40.4637C55.7593 40.549 55.5315 40.587 55.3035 40.5752ZM55.3035 37.5082C54.5035 37.5082 54.1775 38.0882 54.1775 38.8272C54.1775 39.5482 54.5035 40.1032 55.3035 40.1032C56.1035 40.1032 56.4285 39.5492 56.4285 38.8272C56.4285 38.1052 56.1105 37.5072 55.3035 37.5072V37.5082Z" fill="#B9B9B9"/>
<path d="M60.7985 38.9462C60.7985 39.9962 60.3255 40.5762 59.3135 40.5762C58.3015 40.5762 57.8205 40.0042 57.8205 38.9462V37.0772H58.3205V38.9422C58.3205 39.6712 58.5805 40.1022 59.3085 40.1022C60.0365 40.1022 60.2955 39.6712 60.2955 38.9422V37.0772H60.7955L60.7985 38.9462Z" fill="#B9B9B9"/>
<path d="M64.8585 40.5332H64.2975L63.8585 39.6202C63.7908 39.4647 63.675 39.3351 63.528 39.2505C63.3811 39.1659 63.2109 39.1307 63.0425 39.1502H62.2815L62.3315 39.1982V40.5332H61.8315V37.0772H63.3665C63.5149 37.0582 63.6656 37.071 63.8087 37.1145C63.9518 37.158 64.0841 37.2314 64.1968 37.3297C64.3095 37.4281 64.4001 37.5492 64.4626 37.6851C64.5251 37.821 64.5581 37.9686 64.5595 38.1182C64.5562 38.3111 64.4933 38.4982 64.3794 38.654C64.2656 38.8098 64.1063 38.9265 63.9235 38.9882V38.9972C64.1007 39.0848 64.242 39.2311 64.3235 39.4112L64.8585 40.5332ZM63.3645 37.5512H62.2815L62.3315 37.6032V38.6232L62.2815 38.6792H63.3235C63.7915 38.6792 64.0425 38.4402 64.0425 38.1202C64.0425 37.7092 63.7665 37.5502 63.3645 37.5502V37.5512Z" fill="#B9B9B9"/>
<path d="M68.7805 40.5332H67.1405V37.0772H68.7475C68.8829 37.0601 69.0203 37.0721 69.1507 37.1124C69.2811 37.1527 69.4013 37.2203 69.5035 37.3108C69.6056 37.4013 69.6872 37.5126 69.7429 37.6371C69.7986 37.7617 69.8271 37.8967 69.8265 38.0332C69.8346 38.1686 69.8057 38.3036 69.743 38.4239C69.6803 38.5442 69.5861 38.6452 69.4705 38.7162V38.7252C69.6283 38.7894 69.7618 38.902 69.8516 39.0468C69.9414 39.1916 69.983 39.3612 69.9705 39.5312C69.9755 40.1492 69.5505 40.5332 68.7805 40.5332ZM68.7055 37.5512H67.5925L67.6425 37.6032V38.4692L67.5925 38.5212H68.7055C69.1615 38.5212 69.3115 38.3032 69.3115 38.0302C69.3115 37.7132 69.1195 37.5502 68.7055 37.5502V37.5512ZM68.7805 38.9932H67.5925L67.6425 39.0452V40.0092L67.5925 40.0612H68.7805C69.2805 40.0612 69.4585 39.8692 69.4585 39.5322C69.4585 39.1952 69.2615 38.9922 68.7805 38.9922V38.9932Z" fill="#B9B9B9"/>
<path d="M73.7905 38.9462C73.7905 39.9962 73.3175 40.5762 72.3055 40.5762C71.2935 40.5762 70.8125 40.0042 70.8125 38.9462V37.0772H71.3125V38.9422C71.3125 39.6712 71.5715 40.1022 72.2995 40.1022C73.0275 40.1022 73.2865 39.6712 73.2865 38.9422V37.0772H73.7865L73.7905 38.9462Z" fill="#B9B9B9"/>
<path d="M76.1705 40.5752C75.8906 40.5852 75.6115 40.5381 75.3504 40.4369C75.0893 40.3356 74.8515 40.1823 74.6515 39.9862L75.0235 39.6192C75.1697 39.7714 75.3451 39.8926 75.5393 39.9754C75.7335 40.0582 75.9424 40.101 76.1535 40.1012C76.7765 40.1012 77.0535 39.8662 77.0535 39.6012C77.0535 39.4092 76.8905 39.2092 76.4345 39.0892C76.3635 39.0682 75.8865 38.9441 75.8105 38.9231C75.1955 38.7521 74.7435 38.5232 74.7435 37.9972C74.7435 37.4972 75.1875 37.0372 76.1245 37.0372C76.3765 37.0294 76.6274 37.0748 76.8608 37.1702C77.0943 37.2656 77.305 37.409 77.4795 37.5911L77.1115 37.9621C76.993 37.8157 76.8423 37.6987 76.671 37.6203C76.4998 37.5419 76.3127 37.5042 76.1245 37.5102C75.4965 37.5102 75.2585 37.7491 75.2585 37.9791C75.2585 38.1921 75.4675 38.3161 76.0415 38.4791C76.1125 38.4961 76.5095 38.6072 76.5895 38.6282C77.2715 38.8032 77.5685 39.1572 77.5685 39.5802C77.5705 40.0762 77.1765 40.5752 76.1705 40.5752Z" fill="#B9B9B9"/>
<path d="M78.9735 40.5332H78.4735V37.0772H78.9735V40.5332Z" fill="#B9B9B9"/>
<path d="M82.9275 40.5332H82.4835L80.7835 38.2982L80.5495 37.9052H80.5405V40.5332H80.0405V37.0772H80.4845L82.1915 39.3172L82.4175 39.7052H82.4265V37.0772H82.9265L82.9275 40.5332Z" fill="#B9B9B9"/>
<path d="M86.5695 40.5332H83.9755V37.0772H86.5695V37.5502H84.4285L84.4785 37.6022V38.5152L84.4285 38.5712H86.3695V39.0412H84.4285L84.4785 39.0922V40.0092L84.4285 40.0612H86.5705L86.5695 40.5332Z" fill="#B9B9B9"/>
<path d="M88.8845 40.5752C88.6046 40.5851 88.3256 40.538 88.0644 40.4368C87.8033 40.3355 87.5655 40.1822 87.3655 39.9862L87.7385 39.6192C87.8847 39.7715 88.0601 39.8927 88.2543 39.9755C88.4485 40.0583 88.6574 40.1011 88.8685 40.1012C89.4915 40.1012 89.7685 39.8662 89.7685 39.6012C89.7685 39.4092 89.6055 39.2092 89.1495 39.0892C89.0785 39.0682 88.6015 38.9441 88.5265 38.9231C87.9115 38.7521 87.4595 38.5232 87.4595 37.9972C87.4595 37.4972 87.9035 37.0372 88.8395 37.0372C89.0916 37.0294 89.3424 37.0748 89.5759 37.1702C89.8093 37.2656 90.02 37.409 90.1945 37.5911L89.8265 37.9621C89.7079 37.8157 89.5569 37.6986 89.3855 37.6202C89.2141 37.5418 89.0269 37.5041 88.8385 37.5102C88.2115 37.5102 87.9725 37.7491 87.9725 37.9791C87.9725 38.1921 88.1815 38.3161 88.7545 38.4791C88.8255 38.4961 89.2235 38.6072 89.3025 38.6282C89.9845 38.8032 90.2815 39.1572 90.2815 39.5802C90.2855 40.0762 89.8925 40.5752 88.8845 40.5752Z" fill="#B9B9B9"/>
<path d="M92.5175 40.5752C92.2376 40.5852 91.9586 40.5381 91.6974 40.4369C91.4363 40.3356 91.1985 40.1823 90.9985 39.9862L91.3705 39.6192C91.5167 39.7714 91.6921 39.8926 91.8863 39.9754C92.0805 40.0582 92.2894 40.101 92.5005 40.1012C93.1235 40.1012 93.4005 39.8662 93.4005 39.6012C93.4005 39.4092 93.2375 39.2092 92.7815 39.0892C92.7105 39.0682 92.2335 38.9441 92.1575 38.9231C91.5425 38.7521 91.0905 38.5232 91.0905 37.9972C91.0905 37.4972 91.5345 37.0372 92.4715 37.0372C92.7236 37.0294 92.9744 37.0748 93.2078 37.1702C93.4413 37.2656 93.652 37.409 93.8265 37.5911L93.4585 37.9621C93.34 37.8157 93.1893 37.6987 93.018 37.6203C92.8468 37.5419 92.6597 37.5042 92.4715 37.5102C91.8435 37.5102 91.6055 37.7491 91.6055 37.9791C91.6055 38.1921 91.8145 38.3161 92.3885 38.4791C92.4595 38.4961 92.8565 38.6072 92.9365 38.6282C93.6185 38.8032 93.9155 39.1572 93.9155 39.5802C93.9185 40.0762 93.5295 40.5752 92.5175 40.5752Z" fill="#B9B9B9"/>
<path d="M98.9835 37.5502H97.7655L97.7905 37.6022V40.5332H97.2905V37.6022L97.3195 37.5502H96.0965V37.0772H98.9835V37.5502Z" fill="#B9B9B9"/>
<path d="M102.607 40.5332H102.059L101.703 39.7332L101.728 39.6862H99.9285L99.9535 39.7332L99.5975 40.5332H99.0495L100.584 37.0772H101.073L102.607 40.5332ZM101.498 39.2102L101.448 39.1592L100.929 37.9862L100.829 37.6702H100.821L100.721 37.9812L100.198 39.1592L100.148 39.2102H101.498Z" fill="#B9B9B9"/>
<path d="M106.27 40.5322H105.839V40.0882H105.833C105.705 40.245 105.544 40.3705 105.36 40.4547C105.177 40.539 104.976 40.5799 104.774 40.5742C104.543 40.5928 104.311 40.5604 104.094 40.4792C103.877 40.398 103.68 40.2701 103.518 40.1045C103.356 39.9388 103.232 39.7395 103.155 39.5207C103.079 39.3018 103.051 39.0688 103.075 38.8382C103.05 38.6021 103.078 38.3637 103.155 38.1393C103.232 37.915 103.358 37.7101 103.522 37.5389C103.686 37.3677 103.886 37.2342 104.107 37.1477C104.328 37.0613 104.565 37.0239 104.802 37.0382C105.05 37.0263 105.299 37.067 105.531 37.1574C105.763 37.2479 105.973 37.3861 106.148 37.5632L105.781 37.9302C105.662 37.7885 105.511 37.6768 105.341 37.6042C105.171 37.5315 104.986 37.5 104.802 37.5122C103.978 37.5122 103.588 38.0122 103.588 38.8432C103.588 39.6322 103.965 40.1062 104.777 40.1062C104.912 40.1112 105.048 40.0886 105.174 40.0396C105.301 39.9906 105.416 39.9162 105.513 39.8212C105.611 39.7261 105.687 39.6122 105.739 39.4865C105.79 39.3609 105.816 39.226 105.813 39.0902L105.864 39.0442H104.709V38.5702H106.273L106.27 40.5322Z" fill="#B9B9B9"/>
<path d="M109.715 40.5332H107.315V37.0772H107.815V40.0082L107.765 40.0602H109.71L109.715 40.5332Z" fill="#B9B9B9"/>
<path d="M110.972 40.5332H110.472V37.0772H110.972V40.5332Z" fill="#B9B9B9"/>
<path d="M114.926 40.5332H114.482L112.782 38.2982L112.548 37.9052H112.539V40.5332H112.039V37.0772H112.482L114.189 39.3172L114.414 39.7052H114.423V37.0772H114.923L114.926 40.5332Z" fill="#B9B9B9"/>
<path d="M118.567 40.5332H115.974V37.0772H118.567V37.5502H116.425L116.475 37.6022V38.5152L116.425 38.5712H118.366V39.0412H116.425L116.475 39.0922V40.0092L116.425 40.0612H118.567V40.5332Z" fill="#B9B9B9"/>
<path d="M124.175 40.5322H123.745V40.0882H123.737C123.61 40.2451 123.448 40.3706 123.265 40.4549C123.081 40.5392 122.88 40.58 122.678 40.5742C122.447 40.5926 122.215 40.5601 121.998 40.4789C121.781 40.3976 121.584 40.2697 121.422 40.1041C121.26 39.9385 121.136 39.7392 121.06 39.5205C120.983 39.3017 120.955 39.0688 120.978 38.8382C120.954 38.602 120.982 38.3635 121.059 38.1391C121.137 37.9146 121.262 37.7097 121.426 37.5385C121.591 37.3673 121.79 37.2338 122.011 37.1474C122.232 37.061 122.47 37.0238 122.706 37.0382C122.955 37.0263 123.204 37.067 123.436 37.1574C123.668 37.2479 123.878 37.3861 124.053 37.5632L123.685 37.9302C123.566 37.7886 123.416 37.677 123.246 37.6044C123.076 37.5318 122.891 37.5002 122.706 37.5122C121.882 37.5122 121.493 38.0122 121.493 38.8432C121.493 39.6322 121.869 40.1062 122.681 40.1062C122.817 40.1112 122.953 40.0886 123.079 40.0396C123.206 39.9906 123.321 39.9162 123.418 39.8212C123.515 39.7261 123.592 39.6122 123.644 39.4865C123.695 39.3609 123.721 39.226 123.718 39.0902L123.768 39.0442H122.614V38.5702H124.178L124.175 40.5322Z" fill="#B9B9B9"/>
<path d="M126.717 40.5752C126.489 40.5885 126.261 40.5514 126.048 40.4666C125.836 40.3818 125.645 40.2514 125.488 40.0845C125.332 39.9177 125.214 39.7185 125.143 39.501C125.072 39.2836 125.05 39.0532 125.077 38.8262C125.058 38.599 125.086 38.3703 125.16 38.1545C125.233 37.9387 125.351 37.7406 125.505 37.5726C125.659 37.4047 125.847 37.2706 126.055 37.1788C126.264 37.0871 126.49 37.0398 126.717 37.0398C126.945 37.0398 127.171 37.0871 127.38 37.1788C127.588 37.2706 127.776 37.4047 127.93 37.5726C128.084 37.7406 128.202 37.9387 128.275 38.1545C128.349 38.3703 128.377 38.599 128.357 38.8262C128.384 39.0529 128.361 39.2827 128.289 39.4995C128.218 39.7164 128.1 39.915 127.944 40.0815C127.787 40.248 127.597 40.3785 127.385 40.4637C127.173 40.549 126.945 40.587 126.717 40.5752ZM126.717 37.5082C125.917 37.5082 125.592 38.0882 125.592 38.8272C125.592 39.5482 125.918 40.1032 126.717 40.1032C127.517 40.1032 127.842 39.5492 127.842 38.8272C127.842 38.1052 127.524 37.5072 126.717 37.5072V37.5082Z" fill="#B9B9B9"/>
<path d="M131.852 40.5332H129.259V37.0772H131.852V37.5502H129.71L129.76 37.6022V38.5152L129.71 38.5712H131.651V39.0412H129.71L129.76 39.0922V40.0092L129.71 40.0612H131.852V40.5332Z" fill="#B9B9B9"/>
<path d="M134.167 40.5752C133.888 40.585 133.609 40.5379 133.348 40.4367C133.087 40.3354 132.849 40.1821 132.649 39.9862L133.021 39.6192C133.167 39.7714 133.343 39.8926 133.537 39.9754C133.731 40.0582 133.94 40.101 134.15 40.1012C134.774 40.1012 135.05 39.8662 135.05 39.6012C135.05 39.4092 134.887 39.2092 134.431 39.0892C134.36 39.0682 133.883 38.9441 133.808 38.9231C133.193 38.7521 132.741 38.5232 132.741 37.9972C132.741 37.4972 133.184 37.0372 134.121 37.0372C134.374 37.0294 134.624 37.0748 134.858 37.1702C135.091 37.2656 135.302 37.409 135.476 37.5911L135.108 37.9621C134.99 37.8156 134.839 37.6985 134.668 37.6201C134.496 37.5417 134.309 37.504 134.12 37.5102C133.493 37.5102 133.254 37.7491 133.254 37.9791C133.254 38.1921 133.463 38.3161 134.036 38.4791C134.107 38.4961 134.505 38.6072 134.584 38.6282C135.266 38.8032 135.563 39.1572 135.563 39.5802C135.569 40.0762 135.175 40.5752 134.167 40.5752Z" fill="#B9B9B9"/>
<path d="M140.927 40.5332H140.427V39.0952L140.477 39.0442H138.494L138.544 39.0952V40.5332H138.044V37.0772H138.544V38.5192L138.494 38.5702H140.475L140.425 38.5192V37.0772H140.925L140.927 40.5332Z" fill="#B9B9B9"/>
<path d="M144.569 40.5332H141.975V37.0772H144.569V37.5502H142.426L142.476 37.6022V38.5152L142.426 38.5712H144.368V39.0412H142.426L142.476 39.0922V40.0092L142.426 40.0612H144.569V40.5332Z" fill="#B9B9B9"/>
<path d="M148.561 40.5332H148.001L147.561 39.6202C147.494 39.4646 147.378 39.3349 147.231 39.2503C147.084 39.1657 146.914 39.1306 146.746 39.1502H145.984L146.035 39.1982V40.5332H145.535V37.0772H147.069C147.218 37.0582 147.368 37.071 147.512 37.1145C147.655 37.158 147.787 37.2314 147.899 37.3298C148.012 37.4281 148.103 37.5493 148.165 37.6852C148.227 37.8211 148.26 37.9686 148.261 38.1182C148.258 38.3111 148.196 38.4984 148.082 38.6542C147.968 38.81 147.808 38.9266 147.626 38.9882V38.9972C147.803 39.0848 147.944 39.2311 148.025 39.4112L148.561 40.5332ZM147.067 37.5512H145.983L146.033 37.6032V38.6232L145.983 38.6792H147.025C147.494 38.6792 147.744 38.4402 147.744 38.1202C147.745 37.7092 147.469 37.5502 147.067 37.5502V37.5512Z" fill="#B9B9B9"/>
<path d="M151.846 40.5332H149.253V37.0772H151.846V37.5502H149.704L149.754 37.6022V38.5152L149.704 38.5712H151.646V39.0412H149.704L149.754 39.0922V40.0092L149.704 40.0612H151.846V40.5332Z" fill="#B9B9B9"/>
</svg>
