<svg width="170" height="61" viewBox="0 0 170 61" fill="none" xmlns="http://www.w3.org/2000/svg">
<path d="M41.871 19.677H42.851C43.6281 19.677 44.3734 19.9857 44.9228 20.5352C45.4723 21.0847 45.781 21.8299 45.781 22.607C45.781 28.307 45.762 34.017 45.781 39.722C45.781 39.791 45.781 39.86 45.781 39.93C45.781 40.317 45.839 40.7 45.854 41.086C45.814 40.003 45.889 41.164 45.971 41.498C46.0598 41.8604 46.1676 42.2179 46.294 42.569C46.312 42.62 46.346 42.691 46.377 42.764L46.445 42.911C46.6161 43.254 46.805 43.5878 47.011 43.911C47.095 44.043 47.182 44.173 47.272 44.301L47.281 44.312L48.735 45.766C48.869 45.858 49.002 45.951 49.135 46.038C49.4445 46.2356 49.7639 46.4171 50.092 46.582C50.204 46.639 50.364 46.687 50.48 46.756C50.8306 46.8818 51.1874 46.9896 51.549 47.079C51.883 47.161 53.044 47.236 51.96 47.196C52.382 47.212 52.8 47.266 53.223 47.27C53.505 47.27 53.787 47.259 54.069 47.237C54.137 47.231 54.25 47.209 54.351 47.198H54.367C54.6784 47.1373 54.9863 47.0633 55.291 46.976C55.481 46.921 55.691 46.826 55.891 46.746C55.852 46.784 55.931 46.795 56.083 46.717L56.256 46.631C56.286 46.625 56.316 46.618 56.346 46.614L56.266 46.626C56.385 46.568 56.503 46.509 56.62 46.446C56.8867 46.304 57.1444 46.151 57.393 45.987C57.473 45.935 57.551 45.881 57.628 45.827L57.589 45.879C57.603 45.86 57.62 45.841 57.636 45.822L57.805 45.705C57.961 45.605 57.976 45.526 57.905 45.562C58.105 45.397 58.323 45.24 58.482 45.081C58.674 44.888 58.859 44.689 59.036 44.481C59.094 44.397 59.177 44.304 59.217 44.246C59.407 43.9713 59.5837 43.689 59.747 43.399C59.8685 43.1084 60.0071 42.8252 60.162 42.551C60.205 42.43 60.247 42.309 60.286 42.187C60.386 41.862 60.477 41.532 60.549 41.2C60.574 41.084 60.595 40.968 60.617 40.851C60.643 40.509 60.667 40.169 60.67 39.826C60.683 38.197 60.67 36.567 60.67 34.937V22.607C60.67 21.8299 60.9787 21.0847 61.5282 20.5352C62.0777 19.9857 62.8229 19.677 63.6 19.677H64.58C65.3571 19.677 66.1024 19.9857 66.6518 20.5352C67.2013 21.0847 67.51 21.8299 67.51 22.607V23.366C67.51 28.851 67.557 34.338 67.51 39.823C67.4624 43.597 65.9425 47.2032 63.2744 49.8728C60.6063 52.5424 57.001 54.0643 53.227 54.114C53.165 54.114 53.103 54.114 53.042 54.108C46.42 53.955 40.274 49.077 39.192 42.408C38.9278 40.1801 38.8435 37.9345 38.94 35.693V22.607C38.94 22.2222 39.0158 21.8411 39.1631 21.4855C39.3104 21.13 39.5264 20.8069 39.7985 20.5348C40.0707 20.2627 40.3938 20.0469 40.7494 19.8997C41.105 19.7526 41.4862 19.6769 41.871 19.677Z" fill="#B9B9B9"/>
<path d="M53.6629 41.433H52.6828C51.9058 41.433 51.1605 41.1243 50.611 40.5748C50.0616 40.0253 49.7529 39.2801 49.7529 38.503C49.7529 32.798 49.7709 27.092 49.7529 21.388C49.7529 21.318 49.7529 21.249 49.7529 21.18C49.7529 20.792 49.6949 20.409 49.6799 20.023C49.7199 21.107 49.6449 19.946 49.5629 19.612C49.4738 19.2493 49.366 18.8915 49.2399 18.54C49.2219 18.49 49.1868 18.418 49.1568 18.345L49.0889 18.199C48.9182 17.8558 48.7292 17.522 48.5228 17.199C48.4388 17.067 48.3519 16.937 48.2619 16.809L48.2529 16.798L46.7988 15.344C46.6648 15.253 46.5329 15.159 46.3988 15.072C46.0892 14.8746 45.7698 14.693 45.4418 14.528C45.3288 14.471 45.1698 14.428 45.0538 14.354C44.7029 14.2286 44.3457 14.1212 43.9838 14.032C43.6508 13.95 42.4899 13.875 43.5729 13.915C43.1509 13.899 42.7329 13.845 42.3109 13.842C42.0289 13.842 41.7459 13.853 41.4649 13.875C41.3969 13.875 41.2838 13.903 41.1828 13.913H41.1658C40.8545 13.9737 40.5465 14.048 40.2419 14.136C40.0519 14.19 39.8419 14.285 39.6419 14.366C39.6809 14.328 39.6018 14.317 39.4498 14.395C39.3918 14.425 39.3348 14.453 39.2768 14.482C39.2468 14.488 39.2168 14.495 39.1868 14.498L39.2669 14.486C39.1479 14.545 39.0299 14.603 38.9129 14.666C38.6489 14.808 38.3908 14.966 38.1398 15.126C38.0598 15.178 37.9819 15.231 37.9049 15.285L37.9448 15.234C37.9308 15.253 37.9139 15.272 37.8969 15.291C37.8409 15.33 37.7849 15.369 37.7279 15.407C37.5719 15.507 37.5569 15.587 37.6279 15.55C37.4279 15.716 37.2099 15.872 37.0509 16.031C36.8582 16.223 36.6732 16.423 36.4959 16.631C36.4379 16.716 36.3549 16.808 36.3149 16.866C36.1255 17.1393 35.9489 17.4217 35.7849 17.713C35.6635 18.0037 35.5249 18.2868 35.3699 18.561C35.3265 18.6817 35.2852 18.8033 35.2459 18.926C35.1459 19.25 35.0558 19.58 34.9838 19.913C34.9578 20.029 34.9378 20.146 34.9148 20.262C34.8898 20.604 34.8659 20.944 34.8629 21.288C34.8489 22.917 34.8629 24.547 34.8629 26.177V38.505C34.8626 39.2822 34.5537 40.0274 34.004 40.5769C33.4544 41.1263 32.709 41.435 31.9319 41.435H30.9529C30.1757 41.435 29.4303 41.1263 28.8807 40.5769C28.3311 40.0274 28.0221 39.2822 28.0219 38.505V37.745C28.0219 32.261 27.9749 26.773 28.0219 21.289C28.0703 17.5156 29.5903 13.9102 32.2581 11.2411C34.9258 8.57207 38.5305 7.05026 42.3038 7C42.3648 7 42.4269 7.00001 42.4879 7.00601C49.1099 7.15901 55.2558 12.037 56.3378 18.706C56.602 20.9336 56.6863 23.1789 56.5899 25.42V38.506C56.5888 39.282 56.2801 40.0258 55.7314 40.5745C55.1827 41.1232 54.4388 41.4319 53.6629 41.433Z" fill="#E3E3E3"/>
<path d="M78.251 25.9991V37.2791H76.795V25.9991H78.251ZM90.0958 31.6311C90.0958 32.7724 89.8665 33.7697 89.4078 34.6231C88.9492 35.4657 88.2718 36.1217 87.3758 36.5911C86.4905 37.0497 85.4238 37.2791 84.1758 37.2791H80.5918V25.9991H84.1758C85.4238 25.9991 86.4905 26.2284 87.3758 26.6871C88.2718 27.1351 88.9492 27.7857 89.4078 28.6391C89.8665 29.4817 90.0958 30.4791 90.0958 31.6311ZM84.0638 35.9671C85.5358 35.9671 86.6612 35.5884 87.4398 34.8311C88.2185 34.0737 88.6078 33.0071 88.6078 31.6311C88.6078 30.2551 88.2185 29.1884 87.4398 28.4311C86.6718 27.6631 85.5465 27.2791 84.0638 27.2791H82.0478V35.9671H84.0638ZM93.5166 27.1831V31.0391H97.8046V32.1591H93.5166V36.0951H98.2846V37.2791H92.0606V25.9991H98.2846V27.1831H93.5166ZM108.922 37.2791H107.466L101.61 28.3671V37.2791H100.154V25.9991H101.61L107.466 34.9271V25.9991H108.922V37.2791ZM118.176 25.9991V27.1831H114.992V37.2791H113.536V27.1831H110.352V25.9991H118.176ZM121.079 25.9991V37.2791H119.623V25.9991H121.079ZM130.332 25.9991V27.1831H127.148V37.2791H125.692V27.1831H122.508V25.9991H130.332ZM139.795 25.9991L136.099 33.0071V37.2791H134.627V33.0071L130.915 25.9991H132.611L135.379 31.4551L138.131 25.9991H139.795Z" fill="#B9B9B9"/>
<path d="M96.358 45.271C96.358 45.5137 96.2996 45.74 96.183 45.95C96.0663 46.1554 95.889 46.321 95.651 46.447C95.413 46.573 95.1213 46.636 94.776 46.636C94.44 46.636 94.139 46.5777 93.873 46.461C93.607 46.3397 93.3946 46.1717 93.236 45.957C93.0773 45.7424 92.9863 45.495 92.963 45.215H93.817C93.8403 45.4297 93.9313 45.614 94.09 45.768C94.2533 45.922 94.4703 45.999 94.741 45.999C94.9836 45.999 95.1703 45.9337 95.301 45.803C95.4363 45.6724 95.504 45.5044 95.504 45.299C95.504 45.1217 95.455 44.977 95.357 44.865C95.259 44.7484 95.1376 44.6574 94.993 44.592C94.8483 44.5267 94.65 44.452 94.398 44.368C94.09 44.27 93.838 44.172 93.642 44.074C93.4506 43.976 93.2873 43.8337 93.152 43.647C93.0166 43.4604 92.949 43.2154 92.949 42.912C92.949 42.646 93.0143 42.4127 93.145 42.212C93.2756 42.0114 93.4623 41.8574 93.705 41.75C93.9476 41.638 94.2276 41.582 94.545 41.582C95.049 41.582 95.448 41.7034 95.742 41.946C96.0406 42.1887 96.211 42.506 96.253 42.898H95.392C95.3593 42.7114 95.2706 42.5527 95.126 42.422C94.986 42.2867 94.7923 42.219 94.545 42.219C94.321 42.219 94.1413 42.2774 94.006 42.394C93.8706 42.506 93.803 42.6694 93.803 42.884C93.803 43.052 93.8496 43.192 93.943 43.304C94.0363 43.4114 94.153 43.4977 94.293 43.563C94.4376 43.6237 94.6336 43.696 94.881 43.78C95.1936 43.878 95.448 43.9784 95.644 44.081C95.8446 44.179 96.0126 44.3237 96.148 44.515C96.288 44.7064 96.358 44.9584 96.358 45.271ZM97.9548 45.964H99.6628V46.587H97.1568V41.645H97.9548V45.964ZM102.577 41.582C103.034 41.582 103.447 41.6894 103.816 41.904C104.189 42.1187 104.481 42.4197 104.691 42.807C104.905 43.1897 105.013 43.6237 105.013 44.109C105.013 44.5944 104.905 45.0307 104.691 45.418C104.481 45.8007 104.189 46.1017 103.816 46.321C103.447 46.5357 103.034 46.643 102.577 46.643C102.115 46.643 101.697 46.5357 101.324 46.321C100.955 46.1017 100.663 45.8007 100.449 45.418C100.234 45.0307 100.127 44.5944 100.127 44.109C100.127 43.6237 100.234 43.1897 100.449 42.807C100.663 42.4197 100.955 42.1187 101.324 41.904C101.697 41.6894 102.115 41.582 102.577 41.582ZM102.577 42.324C102.259 42.324 101.977 42.3964 101.73 42.541C101.482 42.6857 101.289 42.8934 101.149 43.164C101.013 43.4347 100.946 43.7497 100.946 44.109C100.946 44.4684 101.013 44.7834 101.149 45.054C101.289 45.3247 101.482 45.5324 101.73 45.677C101.977 45.8217 102.259 45.894 102.577 45.894C102.889 45.894 103.167 45.8217 103.41 45.677C103.657 45.5324 103.848 45.3247 103.984 45.054C104.124 44.7834 104.194 44.4684 104.194 44.109C104.194 43.7497 104.124 43.4347 103.984 43.164C103.848 42.8934 103.657 42.6857 103.41 42.541C103.167 42.3964 102.889 42.324 102.577 42.324ZM108.079 41.603C108.667 41.603 109.157 41.7477 109.549 42.037C109.941 42.3264 110.2 42.7207 110.326 43.22H109.486C109.379 42.954 109.201 42.7417 108.954 42.583C108.711 42.4244 108.422 42.345 108.086 42.345C107.778 42.345 107.5 42.4174 107.253 42.562C107.01 42.7067 106.819 42.912 106.679 43.178C106.544 43.444 106.476 43.7567 106.476 44.116C106.476 44.494 106.546 44.8184 106.686 45.089C106.826 45.3597 107.022 45.5674 107.274 45.712C107.531 45.852 107.827 45.922 108.163 45.922C108.574 45.922 108.926 45.796 109.22 45.544C109.514 45.2874 109.691 44.9374 109.752 44.494H107.939V43.906H110.424V44.669C110.368 45.033 110.237 45.3644 110.032 45.663C109.831 45.957 109.563 46.1927 109.227 46.37C108.896 46.5474 108.515 46.636 108.086 46.636C107.605 46.636 107.181 46.5287 106.812 46.314C106.443 46.0994 106.159 45.803 105.958 45.425C105.757 45.0424 105.657 44.606 105.657 44.116C105.657 43.626 105.757 43.192 105.958 42.814C106.159 42.4314 106.441 42.135 106.805 41.925C107.174 41.7104 107.598 41.603 108.079 41.603ZM114.179 45.516H112.093L111.715 46.587H110.861L112.681 41.722H113.598L115.411 46.587H114.557L114.179 45.516ZM113.955 44.9L113.136 42.59L112.317 44.9H113.955ZM120.001 46.587H119.203L116.802 42.94V46.587H116.004V41.652H116.802L119.203 45.313V41.652H120.001V46.587ZM126.534 41.645V46.587H125.729V44.368H123.405V46.587H122.607V41.645H123.405V43.717H125.729V41.645H126.534ZM128.3 42.289V43.787H130.12V44.403H128.3V45.936H130.33V46.587H127.502V41.645H130.33V42.289H128.3ZM133.701 46.587L132.469 44.613H131.902V46.587H131.104V41.645H132.847C133.412 41.645 133.839 41.7827 134.128 42.058C134.422 42.3334 134.569 42.6974 134.569 43.15C134.569 43.5374 134.459 43.8547 134.24 44.102C134.025 44.3494 133.713 44.508 133.302 44.578L134.597 46.587H133.701ZM131.902 44.046H132.784C133.428 44.046 133.75 43.7614 133.75 43.192C133.75 42.9214 133.671 42.7114 133.512 42.562C133.358 42.408 133.115 42.331 132.784 42.331H131.902V44.046ZM136.086 42.289V43.787H137.906V44.403H136.086V45.936H138.116V46.587H135.288V41.645H138.116V42.289H136.086Z" fill="#B9B9B9"/>
</svg>
