<svg width="170" height="61" viewBox="0 0 170 61" fill="none" xmlns="http://www.w3.org/2000/svg">
<path d="M61.8636 18.5137C61.8641 18.5148 61.8643 18.516 61.8643 18.5172C61.8643 18.5184 61.8641 18.5196 61.8636 18.5208C63.6228 23.6531 64.2607 29.1092 63.7332 34.5141L63.6581 34.4442C57.9247 6.35775 33.4355 5.26554 32.418 5.23113C54.2566 4.26343 61.6781 18.1634 61.8636 18.5137Z" fill="#EBEBEB"/>
<path d="M63.662 34.446C54.8529 10.8508 32.4219 5.23291 32.4219 5.23291C33.4404 5.26733 57.9296 6.35953 63.662 34.446Z" fill="#BBBBBB"/>
<path d="M65.3046 32.1897L65.3447 32.1289C83.9141 25.0139 81.9422 7.81912 81.8519 7.10549C81.853 7.10294 81.8536 7.10017 81.8536 7.09738C81.8536 7.0946 81.853 7.09184 81.8519 7.08929V7.0822L81.7517 7.01438C66.7311 9.97516 63.9432 20.6623 63.875 20.9326C63.875 20.9184 63.875 20.9063 63.875 20.8911C63.9001 20.6947 63.9261 20.5034 63.9542 20.3131C63.9742 20.1846 63.9953 20.055 64.0154 19.9285C64.0444 19.7736 64.0725 19.6248 64.1036 19.4659L64.1607 19.1906C64.1818 19.0995 64.1998 19.0084 64.2209 18.9172C64.2419 18.8261 64.264 18.732 64.287 18.6409C64.3101 18.5498 64.3331 18.4577 64.3562 18.3686C64.3793 18.2795 64.4023 18.2026 64.4244 18.1176C64.4374 18.068 64.4504 18.0164 64.4645 17.9708C64.4905 17.8858 64.5146 17.8008 64.5397 17.7188C64.6068 17.5032 64.674 17.2936 64.7472 17.0871C64.7762 17.0011 64.8053 16.9181 64.8364 16.8351C64.8675 16.7521 64.8965 16.6691 64.9286 16.5871C64.9888 16.4231 65.0549 16.2601 65.1211 16.1002C65.1552 16.0213 65.1893 15.9423 65.2214 15.8603L65.2755 15.7429L65.3276 15.6255C65.4078 15.4483 65.488 15.2762 65.5722 15.1062L65.6825 14.8835C65.7286 14.7924 65.7828 14.7023 65.8249 14.6112C65.9251 14.4341 66.0184 14.259 66.1176 14.0859C66.1677 13.9998 66.2179 13.9158 66.269 13.8288C66.2951 13.7842 66.3231 13.7366 66.3512 13.6941L66.3672 13.6648C66.5467 13.3722 66.7362 13.0878 66.9276 12.8115C67.0159 12.6829 67.1061 12.5574 67.1983 12.4309C67.2705 12.3357 67.3417 12.2385 67.4158 12.1444C67.4389 12.112 67.466 12.0766 67.491 12.0432C67.5813 11.9288 67.6715 11.8144 67.7637 11.702C67.8539 11.5897 67.9472 11.4804 68.0404 11.37L68.0625 11.3457C68.1627 11.2303 68.263 11.119 68.3632 11.0077C68.4434 10.9186 68.5256 10.8295 68.6078 10.7425C68.6415 10.7011 68.6776 10.6619 68.7161 10.625C68.7933 10.544 68.8675 10.4651 68.9457 10.3861C68.9637 10.3659 68.9838 10.3467 69.0028 10.3295C69.1031 10.2282 69.2033 10.127 69.2965 10.0349C69.2965 10.0298 69.3066 10.0268 69.3086 10.0238C69.3918 9.94177 69.478 9.86079 69.5642 9.77981C69.6173 9.7292 69.6725 9.67858 69.7256 9.62999C69.8148 9.54395 69.9081 9.46198 70.0013 9.381C70.0945 9.30002 70.1948 9.20688 70.294 9.12388C70.3933 9.04087 70.4945 8.95383 70.5948 8.87184C70.6339 8.83944 70.676 8.80603 70.7171 8.77061C70.7923 8.71088 70.8675 8.64915 70.9437 8.58639C71.3447 8.27057 71.7457 7.96994 72.1527 7.6855L72.3792 7.53063C73.0279 7.08626 73.6825 6.68238 74.3432 6.31595C74.4234 6.26939 74.5026 6.22585 74.5848 6.18131C74.8544 6.03049 75.1261 5.88676 75.3958 5.7501L75.7126 5.58714C76.0347 5.42586 76.3552 5.27334 76.674 5.1296C76.7742 5.08202 76.8745 5.04053 76.9748 4.99599C77.0489 4.96057 77.1241 4.92918 77.1993 4.89477C77.2935 4.85124 77.3858 4.81278 77.479 4.7733C77.6284 4.70852 77.7798 4.64879 77.9221 4.58907C78.0414 4.53947 78.1607 4.49392 78.278 4.44533C78.3953 4.39675 78.5126 4.35322 78.6299 4.30767C78.7472 4.26212 78.8605 4.22062 78.9737 4.17811C79.087 4.1356 79.2003 4.09409 79.3136 4.05461L79.6474 3.93617C79.6625 3.92909 79.6815 3.92605 79.6966 3.91897C80.0133 3.81066 80.3151 3.71653 80.6098 3.61531C80.7101 3.5819 80.8103 3.55154 80.9106 3.52117C81.1251 3.45335 81.3346 3.39261 81.5372 3.33693L81.7777 3.26709C82.1447 3.16587 82.4875 3.07578 82.7993 2.99683L82.9357 2.96544C83.0439 2.93811 83.1462 2.91483 83.2454 2.89155L83.4459 2.84398C83.6464 2.80011 83.8259 2.76165 83.9843 2.72858C84.0384 2.71745 84.0845 2.70732 84.1367 2.69922C84.4264 2.64051 84.6299 2.60712 84.7381 2.58789C84.7672 2.71341 84.8244 2.96949 84.8986 3.343C84.9096 3.39767 84.9216 3.45536 84.9306 3.51306C85.0209 3.97767 85.1311 4.59514 85.2244 5.32901C85.2484 5.51223 85.2725 5.70354 85.2966 5.90093C85.3076 6.00215 85.3186 6.10338 85.3306 6.2046C85.3517 6.40705 85.3727 6.61962 85.3938 6.83725C85.474 7.70676 85.5311 8.67546 85.5442 9.71402C85.5442 9.84358 85.5442 9.97416 85.5442 10.1047C85.5442 10.371 85.5442 10.6372 85.5341 10.9084C85.5341 11.0441 85.5341 11.1797 85.5241 11.3184C85.5011 11.9561 85.457 12.6131 85.3918 13.2811C85.3848 13.3824 85.3737 13.4836 85.3617 13.5777C85.3263 13.9151 85.2842 14.2559 85.2354 14.6001C85.2224 14.6952 85.2063 14.7873 85.1913 14.8825C85.1081 15.423 85.0068 15.9717 84.8905 16.5183C84.8234 16.8169 84.7522 17.1124 84.675 17.41C84.6018 17.6884 84.5236 17.9688 84.4414 18.2482C84.3592 18.5275 84.269 18.8029 84.1737 19.0802C84.1477 19.1551 84.1226 19.231 84.0945 19.3039C83.4979 21.0168 82.6613 22.6346 81.6103 24.108C81.5101 24.2558 81.3968 24.4015 81.2835 24.5483C81.1702 24.6951 81.059 24.8388 80.9407 24.9815L80.7632 25.1931C80.6422 25.3362 80.5189 25.4772 80.3933 25.6162C80.3311 25.6861 80.267 25.7559 80.2028 25.8187C80.1386 25.8814 80.0885 25.9391 80.0304 26.0029L79.488 26.5394C79.4269 26.5991 79.3637 26.6568 79.2996 26.7145C79.2354 26.7722 79.1722 26.8319 79.1091 26.8876C79.0459 26.9433 78.9818 27.003 78.9156 27.0587C78.7151 27.2307 78.5146 27.3988 78.3141 27.5648C78.1136 27.7308 77.891 27.8917 77.6715 28.0486C77.5873 28.1094 77.5071 28.1681 77.4229 28.2268C77.3567 28.2713 77.2915 28.3169 77.2224 28.3614C77.1532 28.4059 77.072 28.4626 76.9928 28.5142C76.9136 28.5659 76.8394 28.6155 76.7602 28.6641C76.6048 28.7653 76.4434 28.8665 76.283 28.9576C76.2028 29.0042 76.1246 29.0528 76.0414 29.0963C72.7258 30.8984 69.0628 31.9537 65.3046 32.1897Z" fill="#BBBBBB"/>
<path d="M32.389 5.23396L32.2717 5.35949C32.9484 25.9079 45.3875 32.8771 47.4035 33.8741L47.4697 33.8843C47.4827 33.8864 47.4954 33.8898 47.5078 33.8944H47.4486C47.5729 33.9541 47.6491 33.9885 47.6732 33.9956C47.6521 33.9956 47.6351 33.9855 47.618 33.9814L47.3103 33.8873C45.7664 33.8772 35.8075 34.3408 29.0647 47.0362L29.0997 47.1486C29.1036 47.1523 29.1085 47.1548 29.1138 47.1557C33.4692 48.9636 38.262 49.4092 42.8712 48.4346C47.4803 47.46 51.6934 45.1101 54.9644 41.6896C42.5764 59.7438 24.3118 48.8086 24 48.6204C24.0521 48.5262 24.1414 48.3379 24.2837 48.0768C24.3048 48.0312 24.3288 47.9867 24.3559 47.9371C24.4351 47.7903 24.5253 47.6334 24.6246 47.4523C24.6586 47.3925 24.6937 47.3338 24.7248 47.2711C24.7769 47.181 24.8251 47.0899 24.8872 46.9917C24.9113 46.9502 24.9353 46.9117 24.9564 46.8702C25.1258 46.5908 25.3083 46.2882 25.5158 45.9592C25.5569 45.8894 25.606 45.8195 25.6501 45.7466C25.7644 45.5685 25.8817 45.3843 26.009 45.199L26.1885 44.9338C26.3679 44.6797 26.5474 44.4186 26.7449 44.1422C26.756 44.129 26.7664 44.1152 26.7759 44.1007L26.9865 43.8143C27.0586 43.7131 27.1318 43.623 27.204 43.5217C27.2762 43.4205 27.3524 43.3264 27.4286 43.2282C27.5048 43.13 27.584 43.0257 27.6632 42.9245C27.7424 42.8233 27.8185 42.7221 27.9018 42.6208C28.002 42.4994 28.1023 42.3739 28.2025 42.2473C28.2677 42.1674 28.3338 42.0904 28.403 42.0135C28.4551 41.9508 28.5033 41.885 28.5624 41.8252C28.6316 41.7412 28.7008 41.6613 28.7759 41.5772C29.0038 41.3127 29.2421 41.0478 29.4907 40.7826C29.5739 40.6986 29.6571 40.6116 29.7393 40.5245C29.9469 40.3049 30.1644 40.0852 30.385 39.8686C30.4501 39.8028 30.5163 39.74 30.5855 39.6773C31.1278 39.1509 31.7043 38.6347 32.3158 38.1397C32.389 38.084 32.4581 38.0243 32.5303 37.9686C32.9203 37.6579 33.3243 37.3552 33.7393 37.0657C33.8226 37.01 33.9048 36.9574 33.981 36.9017C34.0261 36.8734 34.0702 36.842 34.1123 36.8147C34.2226 36.7408 34.3298 36.6709 34.4401 36.6021C34.5504 36.5333 34.6576 36.4624 34.7679 36.3997C34.8782 36.3369 34.9784 36.2671 35.0857 36.2073C35.1479 36.1689 35.21 36.1304 35.2752 36.0919C35.3754 36.0322 35.4757 35.9765 35.5759 35.9178C35.5759 35.9178 35.583 35.9178 35.59 35.9107C35.7073 35.845 35.8316 35.7781 35.9559 35.7154C35.9782 35.7012 36.0013 35.6884 36.0251 35.6769C36.1253 35.6212 36.2256 35.5757 36.3258 35.5231C36.3709 35.4988 36.419 35.4745 36.4672 35.4532C36.5744 35.4006 36.6817 35.3449 36.792 35.2963C36.9263 35.2336 37.0576 35.1708 37.193 35.108C37.2039 35.1048 37.2144 35.1 37.2241 35.0939L37.6251 34.9269C37.7564 34.8712 37.8907 34.8155 38.0261 34.7629C38.0642 34.7487 38.1053 34.7315 38.1434 34.7214C38.2576 34.6758 38.3679 34.6374 38.4822 34.5959C38.6276 34.5432 38.7719 34.4946 38.9213 34.4461C39.2391 34.3448 39.5639 34.2436 39.8947 34.1565C39.9054 34.1559 39.9159 34.1535 39.9258 34.1495C39.9739 34.1353 40.0261 34.1211 40.0772 34.111L40.3639 34.0371C40.5574 33.9916 40.7509 33.9501 40.9474 33.9116C41.0476 33.8944 41.1479 33.8731 41.2481 33.8519L41.4897 33.8134C41.6762 33.782 41.8627 33.7537 42.0521 33.7294C42.0932 33.7223 42.1383 33.7193 42.1795 33.7152C42.2206 33.7112 42.2657 33.701 42.3068 33.698C42.393 33.6909 42.4762 33.6808 42.5624 33.6697C42.7355 33.6521 42.9083 33.6383 43.0807 33.6282C43.1669 33.6211 43.2531 33.614 43.3434 33.6109L43.606 33.6008C43.8236 33.5907 44.0451 33.5867 44.2657 33.5867C44.3519 33.5867 44.4381 33.5867 44.5283 33.5867C44.5764 33.5867 44.6286 33.5867 44.6767 33.5937C44.7629 33.5937 44.8491 33.5937 44.9363 33.6008C45.0236 33.6079 45.1188 33.6079 45.212 33.615C45.3053 33.6221 45.4025 33.6251 45.4957 33.6322L45.7714 33.6535L46.0481 33.6818C46.2035 33.696 46.3589 33.7162 46.5143 33.7304C46.6386 33.7517 46.7659 33.7689 46.8942 33.7861C46.9564 33.7962 47.0185 33.8033 47.0847 33.8175L46.8221 33.7334C46.6496 33.6778 46.4732 33.618 46.3008 33.5593C46.0902 33.4854 45.8827 33.4095 45.6762 33.3326L45.3003 33.1858L44.9343 33.039L44.5614 32.8822C44.4411 32.8265 44.3168 32.7738 44.1955 32.7222C44.0742 32.6706 43.9749 32.621 43.8606 32.5694C43.7955 32.538 43.7293 32.5066 43.6672 32.4752L43.3283 32.3112C43.0446 32.1685 42.7659 32.0218 42.4922 31.8719C42.382 31.8122 42.2717 31.7495 42.1614 31.6908C42.0511 31.632 41.9439 31.5652 41.8366 31.5025C41.6231 31.377 41.4085 31.2474 41.198 31.1158C41.0977 31.0483 40.9942 30.9808 40.8872 30.9133C40.8391 30.8789 40.787 30.8435 40.7358 30.8121C40.6847 30.7807 40.6356 30.7423 40.5845 30.7109C40.3559 30.5581 40.1353 30.4012 39.9148 30.2432C39.8145 30.1734 39.7213 30.1036 39.6281 30.0337C39.5108 29.9497 39.3935 29.8596 39.2792 29.7685C39.0516 29.5944 38.8311 29.4162 38.6125 29.2351C38.5023 29.145 38.395 29.0539 38.2877 28.9597C38.2286 28.9142 38.1704 28.8585 38.1183 28.813C38.1049 28.8034 38.0922 28.7929 38.0802 28.7816C37.7143 28.4607 37.3554 28.1257 37.0135 27.7876C36.8551 27.6347 36.6997 27.4768 36.5434 27.3169C36.4261 27.1914 36.3088 27.0699 36.1915 26.9434C36.1504 26.9019 36.1083 26.8563 36.0702 26.8108C35.9288 26.6579 35.7905 26.5071 35.6561 26.3472C35.5178 26.1906 35.3841 26.0337 35.2551 25.8765C35.2447 25.8645 35.2353 25.8517 35.2271 25.838C35.0857 25.674 34.9504 25.507 34.819 25.34C34.7118 25.2033 34.6085 25.0677 34.5053 24.9351C34.4561 24.8771 34.4099 24.8167 34.3669 24.7539C34.2667 24.6284 34.1734 24.5029 34.0842 24.3743C34.0601 24.3399 34.0391 24.3085 34.015 24.2731C33.8977 24.1121 33.7835 23.9522 33.6732 23.7882C33.6673 23.782 33.6626 23.7748 33.6592 23.767C33.5589 23.6303 33.4697 23.4916 33.3754 23.3489C33.3163 23.2619 33.2581 23.1748 33.203 23.0837C33.1028 22.9369 33.0095 22.7871 32.9163 22.6343C32.8231 22.4814 32.7158 22.3205 32.6226 22.1606C32.5293 22.0006 32.4331 21.8427 32.3398 21.6828C32.3048 21.617 32.2667 21.5502 32.2286 21.4803L32.0201 21.123C31.6682 20.4853 31.3403 19.8395 31.0356 19.1947C30.9768 19.0759 30.9216 18.9575 30.8702 18.8394C30.394 17.811 29.9789 16.7826 29.609 15.7602C29.5639 15.6347 29.5188 15.5122 29.4747 15.3867C29.3263 14.9646 29.188 14.5465 29.0566 14.1315C29.0045 13.9675 28.9564 13.8035 28.9053 13.6396C28.7499 13.1446 28.6115 12.6526 28.4802 12.1678C28.4391 12.0149 28.401 11.8641 28.3599 11.7082C28.3318 11.5959 28.3008 11.4845 28.2737 11.3701C28.2396 11.2274 28.2015 11.0837 28.1734 10.945C28.1183 10.7152 28.0662 10.4915 28.018 10.2719C27.9729 10.0876 27.9348 9.90948 27.8977 9.72829C27.8607 9.5471 27.8216 9.37603 27.7875 9.19788C27.7534 9.01972 27.7153 8.84865 27.6872 8.6786C27.6591 8.50854 27.6221 8.33647 27.587 8.16641C27.5519 7.99636 27.5248 7.82832 27.4967 7.66029C27.4897 7.63904 27.4897 7.6117 27.4827 7.58741C27.4035 7.11672 27.3313 6.66021 27.2692 6.21685C27.2481 6.064 27.2281 5.91318 27.207 5.76033C27.1619 5.44249 27.1238 5.1287 27.0897 4.82908C27.0757 4.70761 27.0617 4.58513 27.0486 4.46974C26.9895 3.92212 26.9414 3.41296 26.9033 2.95139C26.9033 2.88559 26.8932 2.81877 26.8892 2.74893C26.8752 2.58899 26.8652 2.43513 26.8551 2.28836C26.8551 2.18713 26.8451 2.08592 26.8381 1.9847C26.8211 1.6952 26.807 1.43 26.797 1.19313C26.797 1.11317 26.79 1.04029 26.79 0.970441C26.7759 0.545302 26.7729 0.244659 26.7689 0.0877629C26.9484 0.0735916 27.3213 0.0493076 27.8606 0.0280507C27.9398 0.0280507 28.0231 0.0209612 28.1023 0.0209612C28.7759 -0.00333242 29.6632 -0.0104181 30.7088 0.0209612C30.9714 0.0209612 31.2441 0.0351346 31.5278 0.0452569L31.9559 0.0665099C32.2456 0.0806812 32.5494 0.0978912 32.8581 0.119148C34.0942 0.203164 35.4647 0.338793 36.9163 0.558448C37.0994 0.582742 37.2825 0.610755 37.4657 0.642472C37.8356 0.702194 38.2075 0.767982 38.5845 0.837826C38.7739 0.873254 38.9644 0.90768 39.1539 0.946145C40.0411 1.12734 40.9534 1.33585 41.8717 1.58082C42.01 1.61523 42.1444 1.65066 42.2797 1.69216C42.7429 1.81768 43.212 1.95736 43.6832 2.10414C43.8105 2.14564 43.9388 2.18815 44.0662 2.23269C44.805 2.46955 45.5439 2.73882 46.2827 3.03439C46.6837 3.19837 47.0847 3.36944 47.4857 3.54051C47.8586 3.70753 48.2346 3.88162 48.6045 4.06281C48.9744 4.244 49.3403 4.43633 49.7073 4.63473C49.8075 4.68736 49.9078 4.74304 50.008 4.79871C52.2689 6.03581 54.3416 7.59512 56.1624 9.42866C56.3449 9.6139 56.5243 9.80219 56.7048 9.9935C56.8852 10.1848 57.0566 10.3842 57.2301 10.5826C57.3163 10.6838 57.4025 10.7851 57.4887 10.8863C57.6581 11.0887 57.8276 11.3013 57.99 11.5108C58.0732 11.6121 58.1554 11.7234 58.2386 11.8317C58.3218 11.94 58.381 12.02 58.4561 12.1172C58.6697 12.4107 58.8772 12.7063 59.0847 13.01C59.1539 13.1112 59.219 13.2124 59.2852 13.3197C59.3514 13.427 59.4206 13.5221 59.4857 13.6335C59.5509 13.7448 59.62 13.843 59.6862 13.9473C59.8797 14.2682 60.0692 14.5921 60.2526 14.9271C60.4361 15.2622 60.6155 15.6043 60.784 15.9525C60.8491 16.0851 60.9113 16.2147 60.9774 16.3463C61.0226 16.4475 61.0707 16.5558 61.1188 16.6601C61.1669 16.7643 61.2261 16.901 61.2812 17.0224C61.3363 17.1439 61.3815 17.2634 61.4366 17.3889C61.5368 17.6328 61.6371 17.8839 61.7373 18.1349C61.7825 18.2604 61.8306 18.3859 61.8757 18.5114C61.6932 18.1592 54.2677 4.26424 32.4361 5.23396C32.4268 5.2324 32.4173 5.2324 32.408 5.23396H32.389Z" fill="#BBBBBB"/>
<path d="M56.6183 42.052C56.6183 42.052 56.6184 42.06 56.6104 42.065L56.6183 42.052Z" fill="#BBBBBB"/>
<path d="M68.7175 30.0489V44.2419H68.6605L58.5715 34.0009L58.6095 43.7859H56.7475V29.6309H56.8425L66.9125 39.9859L66.8745 30.0489H68.7175ZM79.8684 40.1759H74.5864L73.1234 43.7859H71.2994L77.3034 29.4789H77.4174L83.4214 43.7859H81.2934L79.8684 40.1759ZM79.2414 38.5799L77.2844 33.5639L75.2514 38.5799H79.2414ZM93.0265 30.0489V31.8159H89.3405V43.7859H87.4975V31.8159H83.9065V30.0489H93.0265ZM97.6441 38.9219C97.6441 39.5299 97.7898 40.0809 98.0811 40.5749C98.3724 41.0562 98.7651 41.4426 99.2591 41.7339C99.7658 42.0126 100.323 42.1519 100.931 42.1519C101.564 42.1519 102.134 42.0126 102.641 41.7339C103.16 41.4552 103.566 41.0689 103.857 40.5749C104.148 40.0809 104.294 39.5299 104.294 38.9219V30.0489H106.099V38.9789C106.099 39.9542 105.871 40.8219 105.415 41.5819C104.959 42.3292 104.338 42.9119 103.553 43.3299C102.768 43.7352 101.894 43.9379 100.931 43.9379C99.9811 43.9379 99.1134 43.7352 98.3281 43.3299C97.5428 42.9119 96.9221 42.3292 96.4661 41.5819C96.0228 40.8219 95.8011 39.9542 95.8011 38.9789V30.0489H97.6441V38.9219ZM117.45 43.7859L114.22 38.7129C114.119 38.7256 113.967 38.7319 113.764 38.7319H111.731V43.7859H109.888V30.0489H113.555C114.492 30.0489 115.328 30.2136 116.063 30.5429C116.798 30.8722 117.374 31.3599 117.792 32.0059C118.21 32.6392 118.419 33.4056 118.419 34.3049C118.419 35.1536 118.229 35.9326 117.849 36.6419C117.482 37.3512 116.912 37.8896 116.139 38.2569L119.597 43.7859H117.45ZM113.726 36.9459C114.714 36.9459 115.423 36.6862 115.854 36.1669C116.297 35.6476 116.519 35.0522 116.519 34.3809C116.519 33.9756 116.424 33.5766 116.234 33.1839C116.057 32.7912 115.765 32.4682 115.36 32.2149C114.967 31.9489 114.467 31.8159 113.859 31.8159H111.731V36.9459H113.726ZM129.632 40.1759H124.35L122.887 43.7859H121.063L127.067 29.4789H127.181L133.185 43.7859H131.057L129.632 40.1759ZM129.005 38.5799L127.048 33.5639L125.015 38.5799H129.005ZM137.596 30.0489V41.9999H144.588V43.7859H135.753V30.0489H137.596Z" fill="#BBBBBB"/>
<path d="M67.8214 54.7423V56.0233H68.6124V56.5413H67.8214V58.9143H67.1634V56.5413H66.6314V56.0233H67.1634V54.7423H67.8214ZM72.3809 56.0163V58.9143H71.7299V58.4383C71.6272 58.5736 71.4779 58.6996 71.2819 58.8163C71.0859 58.9283 70.8642 58.9843 70.6169 58.9843C70.3415 58.9843 70.0919 58.926 69.8679 58.8093C69.6485 58.688 69.4735 58.513 69.3429 58.2843C69.2169 58.0556 69.1539 57.7826 69.1539 57.4653C69.1539 57.148 69.2192 56.8726 69.3499 56.6393C69.4852 56.4013 69.6649 56.2193 69.8889 56.0933C70.1175 55.9626 70.3695 55.8973 70.6449 55.8973C70.8922 55.8973 71.1069 55.951 71.2889 56.0583C71.4709 56.1656 71.6179 56.3056 71.7299 56.4783L71.7789 56.0163H72.3809ZM70.7919 58.4453C71.0299 58.4453 71.2329 58.38 71.4009 58.2493C71.5735 58.114 71.6832 57.932 71.7299 57.7033V57.1293C71.6739 56.924 71.5572 56.7583 71.3799 56.6323C71.2025 56.5016 70.9995 56.4363 70.7709 56.4363C70.5982 56.4363 70.4372 56.4783 70.2879 56.5623C70.1432 56.6463 70.0265 56.7653 69.9379 56.9193C69.8539 57.0686 69.8119 57.239 69.8119 57.4303C69.8119 57.617 69.8562 57.7873 69.9449 57.9413C70.0335 58.0953 70.1525 58.219 70.3019 58.3123C70.4512 58.401 70.6145 58.4453 70.7919 58.4453ZM74.5433 57.5213L74.1653 57.8293V58.9143H73.5143V53.4893H74.1653V57.1503L75.6633 55.9463L76.0623 56.2963L74.9913 57.1573L76.2023 58.9143H75.4393L74.5433 57.5213ZM78.2561 58.4243C78.4987 58.4243 78.7344 58.3403 78.9631 58.1723L79.2641 58.6553C79.1101 58.758 78.9421 58.8396 78.7601 58.9003C78.5827 58.9563 78.4101 58.9843 78.2421 58.9843C77.9201 58.9843 77.6377 58.919 77.3951 58.7883C77.1571 58.653 76.9727 58.4686 76.8421 58.2353C76.7114 58.002 76.6461 57.7383 76.6461 57.4443C76.6461 57.1596 76.7161 56.9006 76.8561 56.6673C77.0007 56.4293 77.1967 56.2426 77.4441 56.1073C77.6914 55.9673 77.9621 55.8973 78.2561 55.8973C78.6341 55.8973 78.9491 56.0093 79.2011 56.2333C79.4577 56.4526 79.6327 56.7606 79.7261 57.1573L77.4301 57.9623C77.5141 58.107 77.6261 58.2213 77.7661 58.3053C77.9107 58.3846 78.0741 58.4243 78.2561 58.4243ZM78.2071 56.4153C77.9411 56.4153 77.7217 56.5086 77.5491 56.6953C77.3764 56.882 77.2901 57.12 77.2901 57.4093C77.2901 57.4793 77.2924 57.533 77.2971 57.5703L78.9841 56.9473C78.9141 56.7886 78.8137 56.6603 78.6831 56.5623C78.5571 56.4643 78.3984 56.4153 78.2071 56.4153ZM85.1016 58.6413C84.971 58.7486 84.8146 58.8326 84.6326 58.8933C84.4553 58.954 84.2733 58.9843 84.0866 58.9843C83.774 58.9843 83.4963 58.9213 83.2536 58.7953C83.0156 58.6693 82.829 58.492 82.6936 58.2633C82.563 58.03 82.4976 57.7616 82.4976 57.4583C82.4976 57.1596 82.5676 56.896 82.7076 56.6673C82.8476 56.434 83.0343 56.2543 83.2676 56.1283C83.501 56.0023 83.753 55.9393 84.0236 55.9393C84.467 55.9393 84.8333 56.0606 85.1226 56.3033L84.7936 56.7303C84.7003 56.6603 84.593 56.602 84.4716 56.5553C84.3503 56.504 84.2196 56.4783 84.0796 56.4783C83.907 56.4783 83.7483 56.5226 83.6036 56.6113C83.4636 56.6953 83.3516 56.812 83.2676 56.9613C83.1883 57.1106 83.1486 57.2763 83.1486 57.4583C83.1486 57.6403 83.1906 57.806 83.2746 57.9553C83.3633 58.1046 83.4823 58.2236 83.6316 58.3123C83.781 58.401 83.9513 58.4453 84.1426 58.4453C84.3806 58.4453 84.5883 58.3753 84.7656 58.2353L85.1016 58.6413ZM88.917 56.0163V58.9143H88.266V58.4383C88.1633 58.5736 88.014 58.6996 87.818 58.8163C87.622 58.9283 87.4003 58.9843 87.153 58.9843C86.8777 58.9843 86.628 58.926 86.404 58.8093C86.1847 58.688 86.0097 58.513 85.879 58.2843C85.753 58.0556 85.69 57.7826 85.69 57.4653C85.69 57.148 85.7553 56.8726 85.886 56.6393C86.0213 56.4013 86.201 56.2193 86.425 56.0933C86.6537 55.9626 86.9057 55.8973 87.181 55.8973C87.4283 55.8973 87.643 55.951 87.825 56.0583C88.007 56.1656 88.154 56.3056 88.266 56.4783L88.315 56.0163H88.917ZM87.328 58.4453C87.566 58.4453 87.769 58.38 87.937 58.2493C88.1097 58.114 88.2193 57.932 88.266 57.7033V57.1293C88.21 56.924 88.0933 56.7583 87.916 56.6323C87.7387 56.5016 87.5357 56.4363 87.307 56.4363C87.1343 56.4363 86.9733 56.4783 86.824 56.5623C86.6793 56.6463 86.5627 56.7653 86.474 56.9193C86.39 57.0686 86.348 57.239 86.348 57.4303C86.348 57.617 86.3923 57.7873 86.481 57.9413C86.5697 58.0953 86.6887 58.219 86.838 58.3123C86.9873 58.401 87.1507 58.4453 87.328 58.4453ZM90.6804 56.7023C90.7551 56.5436 90.8601 56.4036 90.9954 56.2823C91.1354 56.161 91.2824 56.0676 91.4364 56.0023C91.5904 55.937 91.7257 55.902 91.8424 55.8973L91.8144 56.5483C91.6044 56.539 91.4131 56.581 91.2404 56.6743C91.0724 56.7676 90.9394 56.8983 90.8414 57.0663C90.7481 57.2296 90.7014 57.4046 90.7014 57.5913V58.9143H90.0504V56.0163H90.6314L90.6804 56.7023ZM93.9172 58.4243C94.1599 58.4243 94.3955 58.3403 94.6242 58.1723L94.9252 58.6553C94.7712 58.758 94.6032 58.8396 94.4212 58.9003C94.2439 58.9563 94.0712 58.9843 93.9032 58.9843C93.5812 58.9843 93.2989 58.919 93.0562 58.7883C92.8182 58.653 92.6339 58.4686 92.5032 58.2353C92.3725 58.002 92.3072 57.7383 92.3072 57.4443C92.3072 57.1596 92.3772 56.9006 92.5172 56.6673C92.6619 56.4293 92.8579 56.2426 93.1052 56.1073C93.3525 55.9673 93.6232 55.8973 93.9172 55.8973C94.2952 55.8973 94.6102 56.0093 94.8622 56.2333C95.1189 56.4526 95.2939 56.7606 95.3872 57.1573L93.0912 57.9623C93.1752 58.107 93.2872 58.2213 93.4272 58.3053C93.5719 58.3846 93.7352 58.4243 93.9172 58.4243ZM93.8682 56.4153C93.6022 56.4153 93.3829 56.5086 93.2102 56.6953C93.0375 56.882 92.9512 57.12 92.9512 57.4093C92.9512 57.4793 92.9535 57.533 92.9582 57.5703L94.6452 56.9473C94.5752 56.7886 94.4749 56.6603 94.3442 56.5623C94.2182 56.4643 94.0595 56.4153 93.8682 56.4153ZM98.1588 57.4373C98.1588 57.1526 98.2264 56.8936 98.3618 56.6603C98.5018 56.4223 98.6931 56.2356 98.9358 56.1003C99.1831 55.965 99.4608 55.8973 99.7688 55.8973C100.077 55.8973 100.35 55.965 100.588 56.1003C100.83 56.2356 101.017 56.42 101.148 56.6533C101.283 56.8866 101.351 57.148 101.351 57.4373C101.351 57.7266 101.283 57.9903 101.148 58.2283C101.017 58.4616 100.83 58.646 100.588 58.7813C100.345 58.9166 100.067 58.9843 99.7548 58.9843C99.4514 58.9843 99.1784 58.9213 98.9358 58.7953C98.6931 58.6646 98.5018 58.4826 98.3618 58.2493C98.2264 58.016 98.1588 57.7453 98.1588 57.4373ZM98.8168 57.4443C98.8168 57.6263 98.8564 57.7943 98.9358 57.9483C99.0198 58.1023 99.1318 58.2236 99.2718 58.3123C99.4164 58.401 99.5751 58.4453 99.7478 58.4453C100.018 58.4453 100.242 58.3496 100.42 58.1583C100.597 57.967 100.686 57.729 100.686 57.4443C100.686 57.1596 100.597 56.9216 100.42 56.7303C100.242 56.5343 100.018 56.4363 99.7478 56.4363C99.5704 56.4363 99.4118 56.483 99.2718 56.5763C99.1318 56.665 99.0198 56.7863 98.9358 56.9403C98.8564 57.0943 98.8168 57.2623 98.8168 57.4443ZM102.463 56.5973H101.966V56.0093H102.463V54.7913C102.463 54.3713 102.559 54.0493 102.75 53.8253C102.942 53.6013 103.222 53.4893 103.59 53.4893C103.693 53.4893 103.803 53.5056 103.919 53.5383C104.036 53.5663 104.139 53.6083 104.227 53.6643L103.947 54.1403C103.877 54.0656 103.779 54.0283 103.653 54.0283C103.476 54.0283 103.341 54.089 103.247 54.2103C103.159 54.3316 103.114 54.5276 103.114 54.7983V56.0093H104.038V56.5973H103.114V58.9143H102.463V56.5973ZM109.857 56.0163L107.988 60.3073H107.344L108.009 58.8163L106.665 56.0163H107.4L108.338 58.0813L109.255 56.0163H109.857ZM110.217 57.4373C110.217 57.1526 110.285 56.8936 110.42 56.6603C110.56 56.4223 110.752 56.2356 110.994 56.1003C111.242 55.965 111.519 55.8973 111.827 55.8973C112.135 55.8973 112.408 55.965 112.646 56.1003C112.889 56.2356 113.076 56.42 113.206 56.6533C113.342 56.8866 113.409 57.148 113.409 57.4373C113.409 57.7266 113.342 57.9903 113.206 58.2283C113.076 58.4616 112.889 58.646 112.646 58.7813C112.404 58.9166 112.126 58.9843 111.813 58.9843C111.51 58.9843 111.237 58.9213 110.994 58.7953C110.752 58.6646 110.56 58.4826 110.42 58.2493C110.285 58.016 110.217 57.7453 110.217 57.4373ZM110.875 57.4443C110.875 57.6263 110.915 57.7943 110.994 57.9483C111.078 58.1023 111.19 58.2236 111.33 58.3123C111.475 58.401 111.634 58.4453 111.806 58.4453C112.077 58.4453 112.301 58.3496 112.478 58.1583C112.656 57.967 112.744 57.729 112.744 57.4443C112.744 57.1596 112.656 56.9216 112.478 56.7303C112.301 56.5343 112.077 56.4363 111.806 56.4363C111.629 56.4363 111.47 56.483 111.33 56.5763C111.19 56.665 111.078 56.7863 110.994 56.9403C110.915 57.0943 110.875 57.2623 110.875 57.4443ZM116.979 56.0163V58.9143H116.391L116.349 58.3613C116.251 58.5573 116.099 58.7183 115.894 58.8443C115.688 58.9656 115.46 59.0263 115.208 59.0263C114.942 59.0263 114.722 58.947 114.55 58.7883C114.382 58.625 114.293 58.415 114.284 58.1583V56.0163H114.935V57.9273C114.944 58.0906 114.991 58.2213 115.075 58.3193C115.163 58.4126 115.294 58.4616 115.467 58.4663C115.625 58.4663 115.77 58.4196 115.901 58.3263C116.031 58.2283 116.134 58.0953 116.209 57.9273C116.288 57.7593 116.328 57.5726 116.328 57.3673V56.0163H116.979ZM118.742 56.7023C118.817 56.5436 118.922 56.4036 119.057 56.2823C119.197 56.161 119.344 56.0676 119.498 56.0023C119.652 55.937 119.787 55.902 119.904 55.8973L119.876 56.5483C119.666 56.539 119.475 56.581 119.302 56.6743C119.134 56.7676 119.001 56.8983 118.903 57.0663C118.81 57.2296 118.763 57.4046 118.763 57.5913V58.9143H118.112V56.0163H118.693L118.742 56.7023ZM121.563 58.9773C121.348 58.9773 121.143 58.94 120.947 58.8653C120.755 58.7906 120.599 58.681 120.478 58.5363L120.758 58.1583C120.874 58.2703 120.996 58.3566 121.122 58.4173C121.252 58.478 121.381 58.5083 121.507 58.5083C121.661 58.5083 121.787 58.478 121.885 58.4173C121.983 58.3566 122.032 58.2633 122.032 58.1373C122.032 58.0393 122.001 57.96 121.941 57.8993C121.88 57.8386 121.81 57.7943 121.731 57.7663C121.656 57.7383 121.528 57.6963 121.346 57.6403C120.851 57.4816 120.604 57.1993 120.604 56.7933C120.604 56.5506 120.692 56.343 120.87 56.1703C121.052 55.9976 121.304 55.9113 121.626 55.9113C121.831 55.9113 122.013 55.937 122.172 55.9883C122.33 56.0396 122.477 56.1213 122.613 56.2333L122.354 56.6323C122.279 56.553 122.183 56.49 122.067 56.4433C121.955 56.3966 121.847 56.371 121.745 56.3663C121.614 56.3663 121.502 56.399 121.409 56.4643C121.315 56.525 121.269 56.609 121.269 56.7163C121.269 56.805 121.299 56.8796 121.36 56.9403C121.42 56.9963 121.483 57.0383 121.549 57.0663C121.614 57.0896 121.742 57.1316 121.934 57.1923C122.172 57.2716 122.356 57.3743 122.487 57.5003C122.622 57.6263 122.69 57.7966 122.69 58.0113C122.69 58.2913 122.592 58.5223 122.396 58.7043C122.2 58.8863 121.922 58.9773 121.563 58.9773ZM124.959 58.4243C125.202 58.4243 125.438 58.3403 125.666 58.1723L125.967 58.6553C125.813 58.758 125.645 58.8396 125.463 58.9003C125.286 58.9563 125.113 58.9843 124.945 58.9843C124.623 58.9843 124.341 58.919 124.098 58.7883C123.86 58.653 123.676 58.4686 123.545 58.2353C123.415 58.002 123.349 57.7383 123.349 57.4443C123.349 57.1596 123.419 56.9006 123.559 56.6673C123.704 56.4293 123.9 56.2426 124.147 56.1073C124.395 55.9673 124.665 55.8973 124.959 55.8973C125.337 55.8973 125.652 56.0093 125.904 56.2333C126.161 56.4526 126.336 56.7606 126.429 57.1573L124.133 57.9623C124.217 58.107 124.329 58.2213 124.469 58.3053C124.614 58.3846 124.777 58.4243 124.959 58.4243ZM124.91 56.4153C124.644 56.4153 124.425 56.5086 124.252 56.6953C124.08 56.882 123.993 57.12 123.993 57.4093C123.993 57.4793 123.996 57.533 124 57.5703L125.687 56.9473C125.617 56.7886 125.517 56.6603 125.386 56.5623C125.26 56.4643 125.102 56.4153 124.91 56.4153ZM127.889 53.4893V58.9143H127.238V53.4893H127.889ZM129.26 56.5973H128.763V56.0093H129.26V54.7913C129.26 54.3713 129.356 54.0493 129.547 53.8253C129.738 53.6013 130.018 53.4893 130.387 53.4893C130.49 53.4893 130.599 53.5056 130.716 53.5383C130.833 53.5663 130.935 53.6083 131.024 53.6643L130.744 54.1403C130.674 54.0656 130.576 54.0283 130.45 54.0283C130.273 54.0283 130.137 54.089 130.044 54.2103C129.955 54.3316 129.911 54.5276 129.911 54.7983V56.0093H130.835V56.5973H129.911V58.9143H129.26V56.5973Z" fill="#BBBBBB"/>
</svg>
